<?xml version="1.0" standalone="no"?>
<!DOCTYPE svg PUBLIC "-//W3C//DTD SVG 20010904//EN"
 "http://www.w3.org/TR/2001/REC-SVG-20010904/DTD/svg10.dtd">
<svg version="1.0" xmlns="http://www.w3.org/2000/svg"
 width="320.000000pt" height="320.000000pt" viewBox="0 0 320.000000 320.000000"
 preserveAspectRatio="xMidYMid meet">
<metadata>
Created by potrace 1.14, written by Peter Selinger 2001-2017
</metadata>
<g transform="translate(0.000000,320.000000) scale(0.100000,-0.100000)"
fill="#000000" stroke="none">
<path d="M2079 2857 c-25 -7 -62 -23 -81 -34 -30 -18 -43 -20 -75 -12 -60 14
-130 10 -232 -11 -181 -37 -302 -118 -409 -273 -157 -228 -206 -470 -105 -517
l33 -15 0 -86 c0 -95 17 -164 49 -205 13 -17 21 -41 21 -66 0 -50 23 -94 63
-119 l32 -21 -173 7 c-148 5 -173 4 -178 -9 -5 -14 12 -76 132 -479 24 -82 44
-152 44 -156 0 -4 -34 -15 -75 -24 l-74 -17 -103 35 c-193 64 -334 70 -503 20
-107 -31 -238 -91 -283 -129 -38 -33 -42 -67 -10 -88 21 -14 20 -16 -42 -49
-52 -27 -66 -39 -68 -61 -4 -34 25 -55 101 -70 45 -10 56 -15 51 -28 -26 -62
50 -98 256 -121 241 -27 435 34 583 184 l68 69 86 12 c48 8 94 11 104 9 10 -3
51 13 92 36 41 23 77 41 80 41 3 0 29 -34 58 -76 29 -41 60 -79 70 -85 41 -22
89 -4 89 33 0 10 5 18 12 18 19 0 130 76 167 114 18 19 38 45 45 57 13 26 12
26 227 64 152 26 156 26 219 -10 14 -8 36 -15 50 -15 34 0 88 34 102 65 14 31
1 27 253 70 286 50 304 54 315 75 6 10 10 44 10 75 0 42 -4 57 -16 62 -9 3
-147 -17 -308 -46 -160 -28 -300 -51 -311 -51 -11 0 -25 10 -30 22 -6 14 -50
45 -108 78 l-99 55 113 8 c200 13 358 64 439 142 19 19 49 37 65 41 78 18 115
60 115 130 0 28 8 46 34 74 25 28 38 56 50 108 9 39 16 78 16 86 0 11 10 16
34 16 55 0 79 27 84 96 8 114 -47 333 -121 479 -125 249 -294 388 -573 470
-108 32 -309 44 -385 22z m-248 -634 c63 -67 118 -150 178 -270 47 -94 54
-103 79 -103 43 0 80 46 106 131 22 72 23 73 36 49 7 -14 40 -53 73 -87 33
-35 55 -63 49 -63 -7 0 -21 -9 -32 -20 -16 -16 -18 -25 -10 -40 9 -17 5 -27
-20 -59 -18 -21 -38 -56 -45 -77 -14 -42 -12 -42 -175 -26 l-65 7 -5 40 c-3
22 -17 61 -32 87 -22 40 -24 48 -11 60 7 8 11 22 7 31 -16 44 -239 112 -290
89 -22 -10 -25 -17 -19 -41 5 -24 2 -30 -16 -36 -52 -17 -139 -123 -139 -170
0 -13 -8 -16 -37 -13 -35 3 -38 6 -38 33 0 25 4 30 24 31 37 2 54 30 116 191
56 146 122 282 152 315 14 15 19 16 42 4 15 -8 47 -36 72 -63z m833 -358 c60
-114 93 -158 136 -178 21 -10 24 -18 22 -47 -5 -47 -5 -47 -46 -42 -29 3 -36
9 -36 26 0 51 -24 100 -73 151 -41 42 -50 57 -42 69 13 21 -5 50 -34 54 -17 3
-21 10 -21 42 0 21 3 46 6 55 8 21 13 14 88 -130z m-807 -21 c53 -31 94 -99
101 -165 4 -39 -1 -60 -23 -104 -98 -202 -395 -134 -395 90 0 166 172 263 317
179z m723 -56 c157 -80 155 -301 -3 -377 -95 -46 -204 -16 -264 73 -29 42 -33
56 -33 114 0 51 5 74 24 107 22 38 78 85 116 98 39 14 118 6 160 -15z m-1085
-168 c35 -136 121 -205 255 -205 64 0 82 4 121 27 58 34 91 72 115 133 l19 46
65 -5 c167 -16 157 -12 165 -62 8 -56 58 -130 113 -169 38 -26 54 -30 122 -34
66 -2 87 1 125 19 53 26 122 100 133 144 7 27 13 31 45 34 37 3 38 2 31 -25
-11 -46 -56 -123 -89 -150 -44 -38 -140 -80 -225 -99 -93 -21 -365 -24 -493
-6 -353 51 -546 171 -573 355 l-6 48 33 -3 c30 -3 34 -7 44 -48z m-137 -12 c7
-7 12 -21 12 -32 0 -18 -1 -19 -20 -1 -20 18 -27 45 -12 45 4 0 13 -5 20 -12z
m1537 -120 c-8 -28 -42 -64 -51 -56 -8 9 4 45 22 63 23 22 36 18 29 -7z m115
-442 c0 -16 -46 -27 -320 -75 -131 -23 -176 -27 -182 -18 -7 12 16 18 207 52
55 9 141 26 190 35 112 23 105 23 105 6z m-974 -65 c28 -22 22 -26 -52 -36
l-49 -7 29 31 c35 36 40 37 72 12z m308 -45 c-21 -25 -40 -43 -42 -41 -3 2 12
25 33 50 20 25 39 44 42 41 3 -3 -12 -25 -33 -50z m106 -15 c25 -48 -33 -101
-79 -72 -11 7 -7 17 20 50 39 46 44 48 59 22z m-305 -36 c0 -9 -58 -22 -172
-40 -34 -5 -43 -3 -43 8 0 10 25 19 88 29 97 17 127 18 127 3z m-912 -162 c14
-48 14 -52 -1 -55 -13 -3 -20 9 -29 52 -19 91 4 94 30 3z m-111 -13 c5 -26 4
-48 -2 -54 -11 -11 -16 2 -23 62 -7 58 15 51 25 -8z"/>
<path d="M1707 1779 c-32 -19 -50 -75 -37 -115 19 -57 92 -82 136 -46 52 42
55 114 7 152 -28 22 -77 26 -106 9z"/>
<path d="M2419 1701 c-61 -61 -23 -160 62 -161 83 0 120 100 60 161 -20 20
-39 29 -61 29 -22 0 -41 -9 -61 -29z"/>
<path d="M2017 1413 c-13 -13 -6 -23 32 -48 38 -24 41 -24 85 -9 42 15 56 31
40 47 -4 3 -22 0 -42 -9 -32 -13 -38 -13 -69 6 -39 23 -37 22 -46 13z"/>
</g>
</svg>
